<svg width="32" height="32" viewBox="0 0 32 32" fill="none" xmlns="http://www.w3.org/2000/svg">
  <rect width="32" height="32" fill="#20E28F"/>
  <path d="M9.5 22C7.5 22 6 21 5.5 18.5H8.5C8.7 19.5 9.2 20 10 20C10.8 20 11.5 19.5 11.5 18.5C11.5 16 5.5 17.5 5.5 13C5.5 11 7 9.5 9.5 9.5C12 9.5 13.5 11 13.5 13.5H10.5C10.3 12.5 9.8 12 9 12C8.2 12 7.5 12.5 7.5 13.5C7.5 16 13.5 14.5 13.5 19C13.5 21 12 22 9.5 22Z" fill="white"/>
  <path d="M20 22C17 22 15 19.5 15 16C15 12.5 17 10 20 10C22.5 10 24.5 11.5 24.7 14H21.5C21.3 13 20.5 12 19.5 12C18 12 17 13.5 17 16C17 18.5 18 20 19.5 20C20.5 20 21.3 19 21.5 18H24.7C24.5 20.5 22.5 22 20 22Z" fill="white"/>
</svg> 